<?xml version="1.0" standalone="no"?><!DOCTYPE svg PUBLIC "-//W3C//DTD SVG 1.1//EN" "http://www.w3.org/Graphics/SVG/1.1/DTD/svg11.dtd"><svg t="1659925018762" class="icon" viewBox="0 0 1024 1024" version="1.1" xmlns="http://www.w3.org/2000/svg" p-id="3068" xmlns:xlink="http://www.w3.org/1999/xlink" width="200" height="200"><defs><style type="text/css">@font-face { font-family: feedback-iconfont; src: url("//at.alicdn.com/t/font_1031158_u69w8yhxdu.woff2?t=1630033759944") format("woff2"), url("//at.alicdn.com/t/font_1031158_u69w8yhxdu.woff?t=1630033759944") format("woff"), url("//at.alicdn.com/t/font_1031158_u69w8yhxdu.ttf?t=1630033759944") format("truetype"); }
</style></defs><path d="M835.114659 865.471835c0 15.422785-12.547715 27.970499-27.956165 27.970499H150.974963c-15.407426 0-27.956165-12.547715-27.956165-27.970499V221.618955c0-15.422785 12.548739-27.970499 27.956165-27.9705h161.638728v-59.764186H150.974963c-48.383701 0-87.720351 39.352009-87.720352 87.734686V865.472859c0 48.383701 39.33665 87.734686 87.720352 87.734686h656.182507c48.383701 0 87.720351-39.352009 87.720352-87.734686V695.181276H835.114659v170.290559z" fill="#ffffff" p-id="3069"></path><path d="M537.284848 74.26445v59.765211h315.033132L355.918921 626.107924l42.080663 42.430832 500.235558-495.881998v311.452606h59.764186V74.26445z" fill="#ffffff" p-id="3070"></path></svg>